# xmcd
#
# Track frame offsets:
#	150
#	34135
#	52002
#	66372
#	78535
#	93957
#	106767
#	120905
#	139112
#
# Disc length: 2072 seconds
#
# Revision: 0
# Processed by: cddbd v1.5.2PL0 Copyright (c) Steve Scherf et al.
# Submitted via: EZCDAudioConverter 2.1.7.1
#
DISCID=72081609
DTITLE=Muddy Waters - "Unk" In Funk
DYEAR=1900
DGENRE=
TTITLE0=Rollin' And Tumblin'
TTITLE1=Just To Be With You
TTITLE2=Electric Man
TTITLE3=Trouble No More
TTITLE4=''Unk'' In Funk
TTITLE5=Drive My Blues Away
TTITLE6=Katie
TTITLE7=Waterboy Waterboy
TTITLE8=Everything's Gonna Be Alright
EXTD=
EXTT0=
EXTT1=
EXTT2=
EXTT3=
EXTT4=
EXTT5=
EXTT6=
EXTT7=
EXTT8=
PLAYORDER=
